<mxfile host="Electron" modified="2023-09-08T14:30:21.493Z" agent="Mozilla/5.0 (Windows NT 10.0; Win64; x64) AppleWebKit/537.36 (KHTML, like Gecko) draw.io/21.6.8 Chrome/114.0.5735.289 Electron/25.5.0 Safari/537.36" etag="XkVXHYvNuvAaOXNwJQvn" version="21.6.8" type="device">
  <diagram name="Page-1" id="MXomhuCQKeBzgSP48p3u">
    <mxGraphModel dx="989" dy="1477" grid="1" gridSize="10" guides="1" tooltips="1" connect="1" arrows="1" fold="1" page="1" pageScale="1" pageWidth="1600" pageHeight="900" math="0" shadow="0">
      <root>
        <mxCell id="0" />
        <mxCell id="1" parent="0" />
        <mxCell id="Qsda-ckWglxTYHk4Aqey-2" style="edgeStyle=orthogonalEdgeStyle;rounded=0;orthogonalLoop=1;jettySize=auto;html=1;exitX=1;exitY=0.75;exitDx=0;exitDy=0;entryX=0;entryY=0.5;entryDx=0;entryDy=0;" edge="1" parent="1" source="Qsda-ckWglxTYHk4Aqey-32" target="Qsda-ckWglxTYHk4Aqey-5">
          <mxGeometry relative="1" as="geometry">
            <mxPoint x="549" y="310" as="targetPoint" />
            <mxPoint x="457.5" y="310" as="sourcePoint" />
          </mxGeometry>
        </mxCell>
        <mxCell id="Qsda-ckWglxTYHk4Aqey-3" style="edgeStyle=orthogonalEdgeStyle;rounded=0;orthogonalLoop=1;jettySize=auto;html=1;exitX=0.5;exitY=1;exitDx=0;exitDy=0;entryX=0.5;entryY=0;entryDx=0;entryDy=0;" edge="1" parent="1" source="Qsda-ckWglxTYHk4Aqey-31" target="Qsda-ckWglxTYHk4Aqey-13">
          <mxGeometry relative="1" as="geometry">
            <mxPoint x="222.5" y="350" as="sourcePoint" />
          </mxGeometry>
        </mxCell>
        <mxCell id="Qsda-ckWglxTYHk4Aqey-4" value="" style="edgeStyle=orthogonalEdgeStyle;rounded=0;orthogonalLoop=1;jettySize=auto;html=1;" edge="1" parent="1" source="Qsda-ckWglxTYHk4Aqey-5" target="Qsda-ckWglxTYHk4Aqey-7">
          <mxGeometry relative="1" as="geometry" />
        </mxCell>
        <mxCell id="Qsda-ckWglxTYHk4Aqey-5" value="&lt;font style=&quot;font-size: 14px;&quot;&gt;&lt;span style=&quot;color: rgb(209, 213, 219); font-family: Söhne, ui-sans-serif, system-ui, -apple-system, &amp;quot;Segoe UI&amp;quot;, Roboto, Ubuntu, Cantarell, &amp;quot;Noto Sans&amp;quot;, sans-serif, &amp;quot;Helvetica Neue&amp;quot;, Arial, &amp;quot;Apple Color Emoji&amp;quot;, &amp;quot;Segoe UI Emoji&amp;quot;, &amp;quot;Segoe UI Symbol&amp;quot;, &amp;quot;Noto Color Emoji&amp;quot;; font-style: normal; font-variant-ligatures: normal; font-variant-caps: normal; font-weight: 400; letter-spacing: normal; orphans: 2; text-align: left; text-indent: 0px; text-transform: none; widows: 2; word-spacing: 0px; -webkit-text-stroke-width: 0px; text-decoration-thickness: initial; text-decoration-style: initial; text-decoration-color: initial; float: none; display: inline !important;&quot;&gt;Redirect to Google Authentication&lt;/span&gt;&lt;br&gt;&lt;/font&gt;" style="rounded=1;whiteSpace=wrap;html=1;" vertex="1" parent="1">
          <mxGeometry x="550" y="275" width="120" height="70" as="geometry" />
        </mxCell>
        <mxCell id="Qsda-ckWglxTYHk4Aqey-6" value="" style="edgeStyle=orthogonalEdgeStyle;rounded=0;orthogonalLoop=1;jettySize=auto;html=1;" edge="1" parent="1" source="Qsda-ckWglxTYHk4Aqey-7" target="Qsda-ckWglxTYHk4Aqey-9">
          <mxGeometry relative="1" as="geometry" />
        </mxCell>
        <mxCell id="Qsda-ckWglxTYHk4Aqey-7" value="&lt;font style=&quot;font-size: 14px;&quot;&gt;&lt;span style=&quot;color: rgb(209, 213, 219); font-family: Söhne, ui-sans-serif, system-ui, -apple-system, &amp;quot;Segoe UI&amp;quot;, Roboto, Ubuntu, Cantarell, &amp;quot;Noto Sans&amp;quot;, sans-serif, &amp;quot;Helvetica Neue&amp;quot;, Arial, &amp;quot;Apple Color Emoji&amp;quot;, &amp;quot;Segoe UI Emoji&amp;quot;, &amp;quot;Segoe UI Symbol&amp;quot;, &amp;quot;Noto Color Emoji&amp;quot;; font-style: normal; font-variant-ligatures: normal; font-variant-caps: normal; font-weight: 400; letter-spacing: normal; orphans: 2; text-align: left; text-indent: 0px; text-transform: none; widows: 2; word-spacing: 0px; -webkit-text-stroke-width: 0px; text-decoration-thickness: initial; text-decoration-style: initial; text-decoration-color: initial; float: none; display: inline !important;&quot;&gt;Grant Permission&lt;/span&gt;&lt;br&gt;&lt;/font&gt;" style="rounded=1;whiteSpace=wrap;html=1;" vertex="1" parent="1">
          <mxGeometry x="550" y="360" width="120" height="70" as="geometry" />
        </mxCell>
        <mxCell id="Qsda-ckWglxTYHk4Aqey-8" value="" style="edgeStyle=orthogonalEdgeStyle;rounded=0;orthogonalLoop=1;jettySize=auto;html=1;" edge="1" parent="1" source="Qsda-ckWglxTYHk4Aqey-9" target="Qsda-ckWglxTYHk4Aqey-11">
          <mxGeometry relative="1" as="geometry" />
        </mxCell>
        <mxCell id="Qsda-ckWglxTYHk4Aqey-9" value="&lt;font style=&quot;font-size: 14px;&quot;&gt;&lt;span style=&quot;color: rgb(209, 213, 219); font-family: Söhne, ui-sans-serif, system-ui, -apple-system, &amp;quot;Segoe UI&amp;quot;, Roboto, Ubuntu, Cantarell, &amp;quot;Noto Sans&amp;quot;, sans-serif, &amp;quot;Helvetica Neue&amp;quot;, Arial, &amp;quot;Apple Color Emoji&amp;quot;, &amp;quot;Segoe UI Emoji&amp;quot;, &amp;quot;Segoe UI Symbol&amp;quot;, &amp;quot;Noto Color Emoji&amp;quot;; font-style: normal; font-variant-ligatures: normal; font-variant-caps: normal; font-weight: 400; letter-spacing: normal; orphans: 2; text-align: left; text-indent: 0px; text-transform: none; widows: 2; word-spacing: 0px; -webkit-text-stroke-width: 0px; text-decoration-thickness: initial; text-decoration-style: initial; text-decoration-color: initial; float: none; display: inline !important;&quot;&gt;Input Personal details&lt;/span&gt;&lt;br&gt;&lt;/font&gt;" style="rounded=1;whiteSpace=wrap;html=1;" vertex="1" parent="1">
          <mxGeometry x="550" y="440" width="120" height="70" as="geometry" />
        </mxCell>
        <mxCell id="Qsda-ckWglxTYHk4Aqey-10" style="edgeStyle=orthogonalEdgeStyle;rounded=0;orthogonalLoop=1;jettySize=auto;html=1;exitX=1;exitY=0.5;exitDx=0;exitDy=0;entryX=0;entryY=0.5;entryDx=0;entryDy=0;" edge="1" parent="1" source="Qsda-ckWglxTYHk4Aqey-11" target="Qsda-ckWglxTYHk4Aqey-36">
          <mxGeometry relative="1" as="geometry">
            <Array as="points">
              <mxPoint x="690" y="555" />
              <mxPoint x="690" y="310" />
            </Array>
          </mxGeometry>
        </mxCell>
        <mxCell id="Qsda-ckWglxTYHk4Aqey-11" value="&lt;font style=&quot;font-size: 14px;&quot;&gt;&lt;span style=&quot;color: rgb(209, 213, 219); font-family: Söhne, ui-sans-serif, system-ui, -apple-system, &amp;quot;Segoe UI&amp;quot;, Roboto, Ubuntu, Cantarell, &amp;quot;Noto Sans&amp;quot;, sans-serif, &amp;quot;Helvetica Neue&amp;quot;, Arial, &amp;quot;Apple Color Emoji&amp;quot;, &amp;quot;Segoe UI Emoji&amp;quot;, &amp;quot;Segoe UI Symbol&amp;quot;, &amp;quot;Noto Color Emoji&amp;quot;; font-style: normal; font-variant-ligatures: normal; font-variant-caps: normal; font-weight: 400; letter-spacing: normal; orphans: 2; text-align: left; text-indent: 0px; text-transform: none; widows: 2; word-spacing: 0px; -webkit-text-stroke-width: 0px; text-decoration-thickness: initial; text-decoration-style: initial; text-decoration-color: initial; float: none; display: inline !important;&quot;&gt;Submit Google Form&lt;/span&gt;&lt;br&gt;&lt;/font&gt;" style="rounded=1;whiteSpace=wrap;html=1;" vertex="1" parent="1">
          <mxGeometry x="550" y="520" width="120" height="70" as="geometry" />
        </mxCell>
        <mxCell id="Qsda-ckWglxTYHk4Aqey-12" style="edgeStyle=orthogonalEdgeStyle;rounded=0;orthogonalLoop=1;jettySize=auto;html=1;exitX=0.5;exitY=1;exitDx=0;exitDy=0;entryX=0.5;entryY=0;entryDx=0;entryDy=0;" edge="1" parent="1" source="Qsda-ckWglxTYHk4Aqey-13" target="Qsda-ckWglxTYHk4Aqey-22">
          <mxGeometry relative="1" as="geometry" />
        </mxCell>
        <mxCell id="Qsda-ckWglxTYHk4Aqey-13" value="&lt;font style=&quot;font-size: 14px;&quot;&gt;&lt;span style=&quot;color: rgb(209, 213, 219); font-family: Söhne, ui-sans-serif, system-ui, -apple-system, &amp;quot;Segoe UI&amp;quot;, Roboto, Ubuntu, Cantarell, &amp;quot;Noto Sans&amp;quot;, sans-serif, &amp;quot;Helvetica Neue&amp;quot;, Arial, &amp;quot;Apple Color Emoji&amp;quot;, &amp;quot;Segoe UI Emoji&amp;quot;, &amp;quot;Segoe UI Symbol&amp;quot;, &amp;quot;Noto Color Emoji&amp;quot;; font-style: normal; font-variant-ligatures: normal; font-variant-caps: normal; font-weight: 400; letter-spacing: normal; orphans: 2; text-align: left; text-indent: 0px; text-transform: none; widows: 2; word-spacing: 0px; -webkit-text-stroke-width: 0px; text-decoration-thickness: initial; text-decoration-style: initial; text-decoration-color: initial; float: none; display: inline !important;&quot;&gt;Input personal details email,password&lt;/span&gt;&lt;br&gt;&lt;/font&gt;" style="rounded=1;whiteSpace=wrap;html=1;" vertex="1" parent="1">
          <mxGeometry x="345" y="520" width="120" height="70" as="geometry" />
        </mxCell>
        <mxCell id="Qsda-ckWglxTYHk4Aqey-14" style="edgeStyle=orthogonalEdgeStyle;rounded=0;orthogonalLoop=1;jettySize=auto;html=1;exitX=0;exitY=0.5;exitDx=0;exitDy=0;entryX=1;entryY=0.571;entryDx=0;entryDy=0;entryPerimeter=0;" edge="1" parent="1" source="Qsda-ckWglxTYHk4Aqey-35" target="Qsda-ckWglxTYHk4Aqey-16">
          <mxGeometry relative="1" as="geometry">
            <mxPoint x="700" y="650" as="targetPoint" />
          </mxGeometry>
        </mxCell>
        <mxCell id="Qsda-ckWglxTYHk4Aqey-15" style="edgeStyle=orthogonalEdgeStyle;rounded=0;orthogonalLoop=1;jettySize=auto;html=1;exitX=0;exitY=0.5;exitDx=0;exitDy=0;entryX=1;entryY=0.5;entryDx=0;entryDy=0;" edge="1" parent="1" source="Qsda-ckWglxTYHk4Aqey-16" target="Qsda-ckWglxTYHk4Aqey-28">
          <mxGeometry relative="1" as="geometry">
            <Array as="points">
              <mxPoint x="520" y="645" />
              <mxPoint x="520" y="134" />
            </Array>
          </mxGeometry>
        </mxCell>
        <mxCell id="Qsda-ckWglxTYHk4Aqey-16" value="&lt;font style=&quot;font-size: 14px;&quot;&gt;&lt;span style=&quot;color: rgb(209, 213, 219); font-family: Söhne, ui-sans-serif, system-ui, -apple-system, &amp;quot;Segoe UI&amp;quot;, Roboto, Ubuntu, Cantarell, &amp;quot;Noto Sans&amp;quot;, sans-serif, &amp;quot;Helvetica Neue&amp;quot;, Arial, &amp;quot;Apple Color Emoji&amp;quot;, &amp;quot;Segoe UI Emoji&amp;quot;, &amp;quot;Segoe UI Symbol&amp;quot;, &amp;quot;Noto Color Emoji&amp;quot;; font-style: normal; font-variant-ligatures: normal; font-variant-caps: normal; font-weight: 400; letter-spacing: normal; orphans: 2; text-align: left; text-indent: 0px; text-transform: none; widows: 2; word-spacing: 0px; -webkit-text-stroke-width: 0px; text-decoration-thickness: initial; text-decoration-style: initial; text-decoration-color: initial; float: none; display: inline !important;&quot;&gt;Error Message&lt;/span&gt;&lt;br&gt;&lt;/font&gt;" style="rounded=1;whiteSpace=wrap;html=1;" vertex="1" parent="1">
          <mxGeometry x="760" y="610" width="120" height="70" as="geometry" />
        </mxCell>
        <mxCell id="Qsda-ckWglxTYHk4Aqey-17" style="edgeStyle=orthogonalEdgeStyle;rounded=0;orthogonalLoop=1;jettySize=auto;html=1;exitX=0.5;exitY=1;exitDx=0;exitDy=0;entryX=1;entryY=0.5;entryDx=0;entryDy=0;" edge="1" parent="1" source="Qsda-ckWglxTYHk4Aqey-43" target="Qsda-ckWglxTYHk4Aqey-19">
          <mxGeometry relative="1" as="geometry">
            <mxPoint x="850" y="791.1428571428571" as="targetPoint" />
          </mxGeometry>
        </mxCell>
        <mxCell id="Qsda-ckWglxTYHk4Aqey-18" style="edgeStyle=orthogonalEdgeStyle;rounded=0;orthogonalLoop=1;jettySize=auto;html=1;exitX=0;exitY=0.5;exitDx=0;exitDy=0;entryX=0.5;entryY=0;entryDx=0;entryDy=0;" edge="1" parent="1" source="Qsda-ckWglxTYHk4Aqey-19" target="Qsda-ckWglxTYHk4Aqey-110">
          <mxGeometry relative="1" as="geometry">
            <mxPoint x="460" y="845" as="targetPoint" />
          </mxGeometry>
        </mxCell>
        <mxCell id="Qsda-ckWglxTYHk4Aqey-19" value="&lt;font style=&quot;font-size: 14px;&quot;&gt;&lt;span style=&quot;color: rgb(209, 213, 219); font-family: Söhne, ui-sans-serif, system-ui, -apple-system, &amp;quot;Segoe UI&amp;quot;, Roboto, Ubuntu, Cantarell, &amp;quot;Noto Sans&amp;quot;, sans-serif, &amp;quot;Helvetica Neue&amp;quot;, Arial, &amp;quot;Apple Color Emoji&amp;quot;, &amp;quot;Segoe UI Emoji&amp;quot;, &amp;quot;Segoe UI Symbol&amp;quot;, &amp;quot;Noto Color Emoji&amp;quot;; font-style: normal; font-variant-ligatures: normal; font-variant-caps: normal; font-weight: 400; letter-spacing: normal; orphans: 2; text-align: left; text-indent: 0px; text-transform: none; widows: 2; word-spacing: 0px; -webkit-text-stroke-width: 0px; text-decoration-thickness: initial; text-decoration-style: initial; text-decoration-color: initial; float: none; display: inline !important;&quot;&gt;Message user successfully made&lt;/span&gt;&lt;br&gt;&lt;/font&gt;" style="rounded=1;whiteSpace=wrap;html=1;" vertex="1" parent="1">
          <mxGeometry x="550" y="710" width="120" height="70" as="geometry" />
        </mxCell>
        <mxCell id="Qsda-ckWglxTYHk4Aqey-22" value="&lt;font style=&quot;font-size: 14px;&quot;&gt;&lt;span style=&quot;color: rgb(209, 213, 219); font-family: Söhne, ui-sans-serif, system-ui, -apple-system, &amp;quot;Segoe UI&amp;quot;, Roboto, Ubuntu, Cantarell, &amp;quot;Noto Sans&amp;quot;, sans-serif, &amp;quot;Helvetica Neue&amp;quot;, Arial, &amp;quot;Apple Color Emoji&amp;quot;, &amp;quot;Segoe UI Emoji&amp;quot;, &amp;quot;Segoe UI Symbol&amp;quot;, &amp;quot;Noto Color Emoji&amp;quot;; font-style: normal; font-variant-ligatures: normal; font-variant-caps: normal; font-weight: 400; letter-spacing: normal; orphans: 2; text-align: left; text-indent: 0px; text-transform: none; widows: 2; word-spacing: 0px; -webkit-text-stroke-width: 0px; text-decoration-thickness: initial; text-decoration-style: initial; text-decoration-color: initial; float: none; display: inline !important;&quot;&gt;Submit Form&lt;/span&gt;&lt;br&gt;&lt;/font&gt;" style="rounded=1;whiteSpace=wrap;html=1;" vertex="1" parent="1">
          <mxGeometry x="245" y="650" width="120" height="70" as="geometry" />
        </mxCell>
        <mxCell id="Qsda-ckWglxTYHk4Aqey-23" value="" style="edgeStyle=orthogonalEdgeStyle;html=1;verticalAlign=bottom;endArrow=open;endSize=8;strokeColor=#ff0000;rounded=0;" edge="1" parent="1" source="Qsda-ckWglxTYHk4Aqey-24">
          <mxGeometry relative="1" as="geometry">
            <mxPoint x="405" y="-110" as="targetPoint" />
          </mxGeometry>
        </mxCell>
        <mxCell id="Qsda-ckWglxTYHk4Aqey-24" value="" style="ellipse;html=1;shape=startState;fillColor=#000000;strokeColor=#ff0000;" vertex="1" parent="1">
          <mxGeometry x="390" y="-190" width="30" height="30" as="geometry" />
        </mxCell>
        <mxCell id="Qsda-ckWglxTYHk4Aqey-27" style="edgeStyle=orthogonalEdgeStyle;rounded=0;orthogonalLoop=1;jettySize=auto;html=1;" edge="1" parent="1" source="Qsda-ckWglxTYHk4Aqey-28" target="Qsda-ckWglxTYHk4Aqey-30">
          <mxGeometry relative="1" as="geometry" />
        </mxCell>
        <mxCell id="Qsda-ckWglxTYHk4Aqey-28" value="&lt;font style=&quot;font-size: 14px;&quot;&gt;&lt;span style=&quot;color: rgb(209, 213, 219); font-family: Söhne, ui-sans-serif, system-ui, -apple-system, &amp;quot;Segoe UI&amp;quot;, Roboto, Ubuntu, Cantarell, &amp;quot;Noto Sans&amp;quot;, sans-serif, &amp;quot;Helvetica Neue&amp;quot;, Arial, &amp;quot;Apple Color Emoji&amp;quot;, &amp;quot;Segoe UI Emoji&amp;quot;, &amp;quot;Segoe UI Symbol&amp;quot;, &amp;quot;Noto Color Emoji&amp;quot;; font-style: normal; font-variant-ligatures: normal; font-variant-caps: normal; font-weight: 400; letter-spacing: normal; orphans: 2; text-align: left; text-indent: 0px; text-transform: none; widows: 2; word-spacing: 0px; -webkit-text-stroke-width: 0px; text-decoration-thickness: initial; text-decoration-style: initial; text-decoration-color: initial; float: none; display: inline !important;&quot;&gt;Choose Registration method&lt;/span&gt;&lt;br&gt;&lt;/font&gt;" style="rounded=1;whiteSpace=wrap;html=1;" vertex="1" parent="1">
          <mxGeometry x="345" y="99" width="120" height="70" as="geometry" />
        </mxCell>
        <mxCell id="Qsda-ckWglxTYHk4Aqey-29" style="edgeStyle=orthogonalEdgeStyle;rounded=0;orthogonalLoop=1;jettySize=auto;html=1;exitX=0;exitY=0.5;exitDx=0;exitDy=0;entryX=0.5;entryY=0;entryDx=0;entryDy=0;" edge="1" parent="1" source="Qsda-ckWglxTYHk4Aqey-30" target="Qsda-ckWglxTYHk4Aqey-31">
          <mxGeometry relative="1" as="geometry">
            <mxPoint x="222.5" y="270" as="targetPoint" />
          </mxGeometry>
        </mxCell>
        <mxCell id="Qsda-ckWglxTYHk4Aqey-30" value="Email/Google" style="rhombus;whiteSpace=wrap;html=1;" vertex="1" parent="1">
          <mxGeometry x="260" y="210" width="105" height="80" as="geometry" />
        </mxCell>
        <mxCell id="Qsda-ckWglxTYHk4Aqey-31" value="&lt;font style=&quot;font-size: 14px;&quot;&gt;&lt;span style=&quot;color: rgb(209, 213, 219); font-family: Söhne, ui-sans-serif, system-ui, -apple-system, &amp;quot;Segoe UI&amp;quot;, Roboto, Ubuntu, Cantarell, &amp;quot;Noto Sans&amp;quot;, sans-serif, &amp;quot;Helvetica Neue&amp;quot;, Arial, &amp;quot;Apple Color Emoji&amp;quot;, &amp;quot;Segoe UI Emoji&amp;quot;, &amp;quot;Segoe UI Symbol&amp;quot;, &amp;quot;Noto Color Emoji&amp;quot;; font-style: normal; font-variant-ligatures: normal; font-variant-caps: normal; font-weight: 400; letter-spacing: normal; orphans: 2; text-align: left; text-indent: 0px; text-transform: none; widows: 2; word-spacing: 0px; -webkit-text-stroke-width: 0px; text-decoration-thickness: initial; text-decoration-style: initial; text-decoration-color: initial; float: none; display: inline !important;&quot;&gt;Selects Email&lt;/span&gt;&lt;br&gt;&lt;/font&gt;" style="rounded=1;whiteSpace=wrap;html=1;" vertex="1" parent="1">
          <mxGeometry x="125" y="290" width="120" height="40" as="geometry" />
        </mxCell>
        <mxCell id="Qsda-ckWglxTYHk4Aqey-32" value="&lt;font style=&quot;font-size: 14px;&quot;&gt;&lt;span style=&quot;color: rgb(209, 213, 219); font-family: Söhne, ui-sans-serif, system-ui, -apple-system, &amp;quot;Segoe UI&amp;quot;, Roboto, Ubuntu, Cantarell, &amp;quot;Noto Sans&amp;quot;, sans-serif, &amp;quot;Helvetica Neue&amp;quot;, Arial, &amp;quot;Apple Color Emoji&amp;quot;, &amp;quot;Segoe UI Emoji&amp;quot;, &amp;quot;Segoe UI Symbol&amp;quot;, &amp;quot;Noto Color Emoji&amp;quot;; font-style: normal; font-variant-ligatures: normal; font-variant-caps: normal; font-weight: 400; letter-spacing: normal; orphans: 2; text-align: left; text-indent: 0px; text-transform: none; widows: 2; word-spacing: 0px; -webkit-text-stroke-width: 0px; text-decoration-thickness: initial; text-decoration-style: initial; text-decoration-color: initial; float: none; display: inline !important;&quot;&gt;Selects Google&lt;/span&gt;&lt;br&gt;&lt;/font&gt;" style="rounded=1;whiteSpace=wrap;html=1;" vertex="1" parent="1">
          <mxGeometry x="345" y="280" width="120" height="40" as="geometry" />
        </mxCell>
        <mxCell id="Qsda-ckWglxTYHk4Aqey-33" style="edgeStyle=orthogonalEdgeStyle;rounded=0;orthogonalLoop=1;jettySize=auto;html=1;entryX=0.5;entryY=0;entryDx=0;entryDy=0;" edge="1" parent="1" source="Qsda-ckWglxTYHk4Aqey-30" target="Qsda-ckWglxTYHk4Aqey-32">
          <mxGeometry relative="1" as="geometry">
            <mxPoint x="405" y="270" as="targetPoint" />
            <Array as="points">
              <mxPoint x="405" y="250" />
            </Array>
          </mxGeometry>
        </mxCell>
        <mxCell id="Qsda-ckWglxTYHk4Aqey-34" value="&lt;font style=&quot;font-size: 14px;&quot;&gt;&lt;span style=&quot;color: rgb(209, 213, 219); font-family: Söhne, ui-sans-serif, system-ui, -apple-system, &amp;quot;Segoe UI&amp;quot;, Roboto, Ubuntu, Cantarell, &amp;quot;Noto Sans&amp;quot;, sans-serif, &amp;quot;Helvetica Neue&amp;quot;, Arial, &amp;quot;Apple Color Emoji&amp;quot;, &amp;quot;Segoe UI Emoji&amp;quot;, &amp;quot;Segoe UI Symbol&amp;quot;, &amp;quot;Noto Color Emoji&amp;quot;; font-style: normal; font-variant-ligatures: normal; font-variant-caps: normal; font-weight: 400; letter-spacing: normal; orphans: 2; text-align: left; text-indent: 0px; text-transform: none; widows: 2; word-spacing: 0px; -webkit-text-stroke-width: 0px; text-decoration-thickness: initial; text-decoration-style: initial; text-decoration-color: initial; float: none; display: inline !important;&quot;&gt;Create User&lt;/span&gt;&lt;br&gt;&lt;/font&gt;" style="rounded=1;whiteSpace=wrap;html=1;" vertex="1" parent="1">
          <mxGeometry x="842" y="500" width="120" height="70" as="geometry" />
        </mxCell>
        <mxCell id="Qsda-ckWglxTYHk4Aqey-35" value="User exists" style="rhombus;whiteSpace=wrap;html=1;" vertex="1" parent="1">
          <mxGeometry x="849.5" y="380" width="105" height="80" as="geometry" />
        </mxCell>
        <mxCell id="Qsda-ckWglxTYHk4Aqey-36" value="&lt;font style=&quot;font-size: 14px;&quot;&gt;&lt;span style=&quot;color: rgb(209, 213, 219); font-family: Söhne, ui-sans-serif, system-ui, -apple-system, &amp;quot;Segoe UI&amp;quot;, Roboto, Ubuntu, Cantarell, &amp;quot;Noto Sans&amp;quot;, sans-serif, &amp;quot;Helvetica Neue&amp;quot;, Arial, &amp;quot;Apple Color Emoji&amp;quot;, &amp;quot;Segoe UI Emoji&amp;quot;, &amp;quot;Segoe UI Symbol&amp;quot;, &amp;quot;Noto Color Emoji&amp;quot;; font-style: normal; font-variant-ligatures: normal; font-variant-caps: normal; font-weight: 400; letter-spacing: normal; orphans: 2; text-align: left; text-indent: 0px; text-transform: none; widows: 2; word-spacing: 0px; -webkit-text-stroke-width: 0px; text-decoration-thickness: initial; text-decoration-style: initial; text-decoration-color: initial; float: none; display: inline !important;&quot;&gt;Retrieve Authentication Token &amp;amp; User Details&lt;/span&gt;&lt;br&gt;&lt;/font&gt;" style="rounded=1;whiteSpace=wrap;html=1;" vertex="1" parent="1">
          <mxGeometry x="842" y="275" width="120" height="70" as="geometry" />
        </mxCell>
        <mxCell id="Qsda-ckWglxTYHk4Aqey-37" style="edgeStyle=orthogonalEdgeStyle;rounded=0;orthogonalLoop=1;jettySize=auto;html=1;exitX=0.5;exitY=1;exitDx=0;exitDy=0;entryX=0.5;entryY=0;entryDx=0;entryDy=0;" edge="1" parent="1" source="Qsda-ckWglxTYHk4Aqey-36" target="Qsda-ckWglxTYHk4Aqey-35">
          <mxGeometry relative="1" as="geometry" />
        </mxCell>
        <mxCell id="Qsda-ckWglxTYHk4Aqey-38" style="edgeStyle=orthogonalEdgeStyle;rounded=0;orthogonalLoop=1;jettySize=auto;html=1;exitX=0.5;exitY=1;exitDx=0;exitDy=0;entryX=0.5;entryY=0;entryDx=0;entryDy=0;" edge="1" parent="1" source="Qsda-ckWglxTYHk4Aqey-35" target="Qsda-ckWglxTYHk4Aqey-34">
          <mxGeometry relative="1" as="geometry">
            <mxPoint x="881.8571428571429" y="500" as="targetPoint" />
            <Array as="points" />
          </mxGeometry>
        </mxCell>
        <mxCell id="Qsda-ckWglxTYHk4Aqey-39" style="edgeStyle=orthogonalEdgeStyle;rounded=0;orthogonalLoop=1;jettySize=auto;html=1;exitX=0.5;exitY=1;exitDx=0;exitDy=0;" edge="1" parent="1" source="Qsda-ckWglxTYHk4Aqey-40" target="Qsda-ckWglxTYHk4Aqey-42">
          <mxGeometry relative="1" as="geometry" />
        </mxCell>
        <mxCell id="Qsda-ckWglxTYHk4Aqey-40" value="&lt;font style=&quot;font-size: 14px;&quot;&gt;&lt;span style=&quot;color: rgb(209, 213, 219); font-family: Söhne, ui-sans-serif, system-ui, -apple-system, &amp;quot;Segoe UI&amp;quot;, Roboto, Ubuntu, Cantarell, &amp;quot;Noto Sans&amp;quot;, sans-serif, &amp;quot;Helvetica Neue&amp;quot;, Arial, &amp;quot;Apple Color Emoji&amp;quot;, &amp;quot;Segoe UI Emoji&amp;quot;, &amp;quot;Segoe UI Symbol&amp;quot;, &amp;quot;Noto Color Emoji&amp;quot;; font-style: normal; font-variant-ligatures: normal; font-variant-caps: normal; font-weight: 400; letter-spacing: normal; orphans: 2; text-align: left; text-indent: 0px; text-transform: none; widows: 2; word-spacing: 0px; -webkit-text-stroke-width: 0px; text-decoration-thickness: initial; text-decoration-style: initial; text-decoration-color: initial; float: none; display: inline !important;&quot;&gt;Validate user input&lt;/span&gt;&lt;br&gt;&lt;/font&gt;" style="rounded=1;whiteSpace=wrap;html=1;" vertex="1" parent="1">
          <mxGeometry x="1032" y="275" width="120" height="70" as="geometry" />
        </mxCell>
        <mxCell id="Qsda-ckWglxTYHk4Aqey-41" style="edgeStyle=orthogonalEdgeStyle;rounded=0;orthogonalLoop=1;jettySize=auto;html=1;exitX=0;exitY=0.5;exitDx=0;exitDy=0;entryX=1;entryY=0.5;entryDx=0;entryDy=0;" edge="1" parent="1" source="Qsda-ckWglxTYHk4Aqey-42" target="Qsda-ckWglxTYHk4Aqey-35">
          <mxGeometry relative="1" as="geometry" />
        </mxCell>
        <mxCell id="Qsda-ckWglxTYHk4Aqey-42" value="input valid" style="rhombus;whiteSpace=wrap;html=1;" vertex="1" parent="1">
          <mxGeometry x="1039.5" y="380" width="105" height="80" as="geometry" />
        </mxCell>
        <mxCell id="Qsda-ckWglxTYHk4Aqey-43" value="&lt;font style=&quot;font-size: 14px;&quot;&gt;&lt;span style=&quot;color: rgb(209, 213, 219); font-family: Söhne, ui-sans-serif, system-ui, -apple-system, &amp;quot;Segoe UI&amp;quot;, Roboto, Ubuntu, Cantarell, &amp;quot;Noto Sans&amp;quot;, sans-serif, &amp;quot;Helvetica Neue&amp;quot;, Arial, &amp;quot;Apple Color Emoji&amp;quot;, &amp;quot;Segoe UI Emoji&amp;quot;, &amp;quot;Segoe UI Symbol&amp;quot;, &amp;quot;Noto Color Emoji&amp;quot;; font-style: normal; font-variant-ligatures: normal; font-variant-caps: normal; font-weight: 400; letter-spacing: normal; orphans: 2; text-align: left; text-indent: 0px; text-transform: none; widows: 2; word-spacing: 0px; -webkit-text-stroke-width: 0px; text-decoration-thickness: initial; text-decoration-style: initial; text-decoration-color: initial; float: none; display: inline !important;&quot;&gt;Save user&lt;/span&gt;&lt;br&gt;&lt;/font&gt;" style="rounded=1;whiteSpace=wrap;html=1;" vertex="1" parent="1">
          <mxGeometry x="1312" y="650" width="120" height="70" as="geometry" />
        </mxCell>
        <mxCell id="Qsda-ckWglxTYHk4Aqey-44" style="edgeStyle=orthogonalEdgeStyle;rounded=0;orthogonalLoop=1;jettySize=auto;html=1;exitX=1;exitY=0.5;exitDx=0;exitDy=0;" edge="1" parent="1" source="Qsda-ckWglxTYHk4Aqey-34" target="Qsda-ckWglxTYHk4Aqey-43">
          <mxGeometry relative="1" as="geometry">
            <mxPoint x="1122" y="535.2857142857142" as="targetPoint" />
          </mxGeometry>
        </mxCell>
        <mxCell id="Qsda-ckWglxTYHk4Aqey-45" style="edgeStyle=orthogonalEdgeStyle;rounded=0;orthogonalLoop=1;jettySize=auto;html=1;exitX=1;exitY=0.5;exitDx=0;exitDy=0;entryX=1;entryY=0.5;entryDx=0;entryDy=0;" edge="1" parent="1" source="Qsda-ckWglxTYHk4Aqey-22" target="Qsda-ckWglxTYHk4Aqey-40">
          <mxGeometry relative="1" as="geometry" />
        </mxCell>
        <mxCell id="Qsda-ckWglxTYHk4Aqey-46" style="edgeStyle=orthogonalEdgeStyle;rounded=0;orthogonalLoop=1;jettySize=auto;html=1;exitX=0.5;exitY=1;exitDx=0;exitDy=0;entryX=1;entryY=0.75;entryDx=0;entryDy=0;" edge="1" parent="1" source="Qsda-ckWglxTYHk4Aqey-42" target="Qsda-ckWglxTYHk4Aqey-16">
          <mxGeometry relative="1" as="geometry" />
        </mxCell>
        <mxCell id="Qsda-ckWglxTYHk4Aqey-92" style="edgeStyle=orthogonalEdgeStyle;rounded=0;orthogonalLoop=1;jettySize=auto;html=1;exitX=1;exitY=0.5;exitDx=0;exitDy=0;entryX=0;entryY=0.5;entryDx=0;entryDy=0;" edge="1" parent="1" source="Qsda-ckWglxTYHk4Aqey-115" target="Qsda-ckWglxTYHk4Aqey-95">
          <mxGeometry relative="1" as="geometry">
            <mxPoint x="554" y="1080" as="targetPoint" />
            <mxPoint x="490" y="1160" as="sourcePoint" />
          </mxGeometry>
        </mxCell>
        <mxCell id="Qsda-ckWglxTYHk4Aqey-93" style="edgeStyle=orthogonalEdgeStyle;rounded=0;orthogonalLoop=1;jettySize=auto;html=1;exitX=0.5;exitY=1;exitDx=0;exitDy=0;entryX=0.5;entryY=0;entryDx=0;entryDy=0;" edge="1" parent="1" source="Qsda-ckWglxTYHk4Aqey-114" target="Qsda-ckWglxTYHk4Aqey-101">
          <mxGeometry relative="1" as="geometry">
            <mxPoint x="227.5" y="1200" as="sourcePoint" />
          </mxGeometry>
        </mxCell>
        <mxCell id="Qsda-ckWglxTYHk4Aqey-94" value="" style="edgeStyle=orthogonalEdgeStyle;rounded=0;orthogonalLoop=1;jettySize=auto;html=1;" edge="1" parent="1" source="Qsda-ckWglxTYHk4Aqey-95" target="Qsda-ckWglxTYHk4Aqey-97">
          <mxGeometry relative="1" as="geometry" />
        </mxCell>
        <mxCell id="Qsda-ckWglxTYHk4Aqey-95" value="&lt;font style=&quot;font-size: 14px;&quot;&gt;&lt;span style=&quot;color: rgb(209, 213, 219); font-family: Söhne, ui-sans-serif, system-ui, -apple-system, &amp;quot;Segoe UI&amp;quot;, Roboto, Ubuntu, Cantarell, &amp;quot;Noto Sans&amp;quot;, sans-serif, &amp;quot;Helvetica Neue&amp;quot;, Arial, &amp;quot;Apple Color Emoji&amp;quot;, &amp;quot;Segoe UI Emoji&amp;quot;, &amp;quot;Segoe UI Symbol&amp;quot;, &amp;quot;Noto Color Emoji&amp;quot;; font-style: normal; font-variant-ligatures: normal; font-variant-caps: normal; font-weight: 400; letter-spacing: normal; orphans: 2; text-align: left; text-indent: 0px; text-transform: none; widows: 2; word-spacing: 0px; -webkit-text-stroke-width: 0px; text-decoration-thickness: initial; text-decoration-style: initial; text-decoration-color: initial; float: none; display: inline !important;&quot;&gt;Redirect to Google Authentication&lt;/span&gt;&lt;br&gt;&lt;/font&gt;" style="rounded=1;whiteSpace=wrap;html=1;" vertex="1" parent="1">
          <mxGeometry x="555" y="1045" width="120" height="70" as="geometry" />
        </mxCell>
        <mxCell id="Qsda-ckWglxTYHk4Aqey-96" value="" style="edgeStyle=orthogonalEdgeStyle;rounded=0;orthogonalLoop=1;jettySize=auto;html=1;" edge="1" parent="1" source="Qsda-ckWglxTYHk4Aqey-97" target="Qsda-ckWglxTYHk4Aqey-99">
          <mxGeometry relative="1" as="geometry" />
        </mxCell>
        <mxCell id="Qsda-ckWglxTYHk4Aqey-97" value="&lt;font style=&quot;font-size: 14px;&quot;&gt;&lt;span style=&quot;color: rgb(209, 213, 219); font-family: Söhne, ui-sans-serif, system-ui, -apple-system, &amp;quot;Segoe UI&amp;quot;, Roboto, Ubuntu, Cantarell, &amp;quot;Noto Sans&amp;quot;, sans-serif, &amp;quot;Helvetica Neue&amp;quot;, Arial, &amp;quot;Apple Color Emoji&amp;quot;, &amp;quot;Segoe UI Emoji&amp;quot;, &amp;quot;Segoe UI Symbol&amp;quot;, &amp;quot;Noto Color Emoji&amp;quot;; font-style: normal; font-variant-ligatures: normal; font-variant-caps: normal; font-weight: 400; letter-spacing: normal; orphans: 2; text-align: left; text-indent: 0px; text-transform: none; widows: 2; word-spacing: 0px; -webkit-text-stroke-width: 0px; text-decoration-thickness: initial; text-decoration-style: initial; text-decoration-color: initial; float: none; display: inline !important;&quot;&gt;Grant Permission&lt;/span&gt;&lt;br&gt;&lt;/font&gt;" style="rounded=1;whiteSpace=wrap;html=1;" vertex="1" parent="1">
          <mxGeometry x="555" y="1160" width="120" height="40" as="geometry" />
        </mxCell>
        <mxCell id="Qsda-ckWglxTYHk4Aqey-98" style="edgeStyle=orthogonalEdgeStyle;rounded=0;orthogonalLoop=1;jettySize=auto;html=1;exitX=1;exitY=0.5;exitDx=0;exitDy=0;entryX=0;entryY=0.5;entryDx=0;entryDy=0;" edge="1" parent="1" source="Qsda-ckWglxTYHk4Aqey-99" target="Qsda-ckWglxTYHk4Aqey-117">
          <mxGeometry relative="1" as="geometry">
            <Array as="points">
              <mxPoint x="695" y="1325" />
              <mxPoint x="695" y="1080" />
            </Array>
          </mxGeometry>
        </mxCell>
        <mxCell id="Qsda-ckWglxTYHk4Aqey-99" value="&lt;font style=&quot;font-size: 14px;&quot;&gt;&lt;span style=&quot;color: rgb(209, 213, 219); font-family: Söhne, ui-sans-serif, system-ui, -apple-system, &amp;quot;Segoe UI&amp;quot;, Roboto, Ubuntu, Cantarell, &amp;quot;Noto Sans&amp;quot;, sans-serif, &amp;quot;Helvetica Neue&amp;quot;, Arial, &amp;quot;Apple Color Emoji&amp;quot;, &amp;quot;Segoe UI Emoji&amp;quot;, &amp;quot;Segoe UI Symbol&amp;quot;, &amp;quot;Noto Color Emoji&amp;quot;; font-style: normal; font-variant-ligatures: normal; font-variant-caps: normal; font-weight: 400; letter-spacing: normal; orphans: 2; text-align: left; text-indent: 0px; text-transform: none; widows: 2; word-spacing: 0px; -webkit-text-stroke-width: 0px; text-decoration-thickness: initial; text-decoration-style: initial; text-decoration-color: initial; float: none; display: inline !important;&quot;&gt;Submit Google Form&lt;/span&gt;&lt;br&gt;&lt;/font&gt;" style="rounded=1;whiteSpace=wrap;html=1;" vertex="1" parent="1">
          <mxGeometry x="555" y="1290" width="120" height="50" as="geometry" />
        </mxCell>
        <mxCell id="Qsda-ckWglxTYHk4Aqey-100" style="edgeStyle=orthogonalEdgeStyle;rounded=0;orthogonalLoop=1;jettySize=auto;html=1;exitX=0.5;exitY=1;exitDx=0;exitDy=0;entryX=0.5;entryY=0;entryDx=0;entryDy=0;" edge="1" parent="1" source="Qsda-ckWglxTYHk4Aqey-101" target="Qsda-ckWglxTYHk4Aqey-104">
          <mxGeometry relative="1" as="geometry" />
        </mxCell>
        <mxCell id="Qsda-ckWglxTYHk4Aqey-101" value="&lt;font style=&quot;font-size: 14px;&quot;&gt;&lt;span style=&quot;color: rgb(209, 213, 219); font-family: Söhne, ui-sans-serif, system-ui, -apple-system, &amp;quot;Segoe UI&amp;quot;, Roboto, Ubuntu, Cantarell, &amp;quot;Noto Sans&amp;quot;, sans-serif, &amp;quot;Helvetica Neue&amp;quot;, Arial, &amp;quot;Apple Color Emoji&amp;quot;, &amp;quot;Segoe UI Emoji&amp;quot;, &amp;quot;Segoe UI Symbol&amp;quot;, &amp;quot;Noto Color Emoji&amp;quot;; font-style: normal; font-variant-ligatures: normal; font-variant-caps: normal; font-weight: 400; letter-spacing: normal; orphans: 2; text-align: left; text-indent: 0px; text-transform: none; widows: 2; word-spacing: 0px; -webkit-text-stroke-width: 0px; text-decoration-thickness: initial; text-decoration-style: initial; text-decoration-color: initial; float: none; display: inline !important;&quot;&gt;Input email,password&lt;/span&gt;&lt;br&gt;&lt;/font&gt;" style="rounded=1;whiteSpace=wrap;html=1;" vertex="1" parent="1">
          <mxGeometry x="350" y="1290" width="120" height="70" as="geometry" />
        </mxCell>
        <mxCell id="Qsda-ckWglxTYHk4Aqey-104" value="&lt;font style=&quot;font-size: 14px;&quot;&gt;&lt;span style=&quot;color: rgb(209, 213, 219); font-family: Söhne, ui-sans-serif, system-ui, -apple-system, &amp;quot;Segoe UI&amp;quot;, Roboto, Ubuntu, Cantarell, &amp;quot;Noto Sans&amp;quot;, sans-serif, &amp;quot;Helvetica Neue&amp;quot;, Arial, &amp;quot;Apple Color Emoji&amp;quot;, &amp;quot;Segoe UI Emoji&amp;quot;, &amp;quot;Segoe UI Symbol&amp;quot;, &amp;quot;Noto Color Emoji&amp;quot;; font-style: normal; font-variant-ligatures: normal; font-variant-caps: normal; font-weight: 400; letter-spacing: normal; orphans: 2; text-align: left; text-indent: 0px; text-transform: none; widows: 2; word-spacing: 0px; -webkit-text-stroke-width: 0px; text-decoration-thickness: initial; text-decoration-style: initial; text-decoration-color: initial; float: none; display: inline !important;&quot;&gt;Submit Form&lt;/span&gt;&lt;br&gt;&lt;/font&gt;" style="rounded=1;whiteSpace=wrap;html=1;" vertex="1" parent="1">
          <mxGeometry x="250" y="1420" width="120" height="70" as="geometry" />
        </mxCell>
        <mxCell id="Qsda-ckWglxTYHk4Aqey-105" value="&lt;font style=&quot;font-size: 14px;&quot;&gt;&lt;span style=&quot;color: rgb(209, 213, 219); font-family: Söhne, ui-sans-serif, system-ui, -apple-system, &amp;quot;Segoe UI&amp;quot;, Roboto, Ubuntu, Cantarell, &amp;quot;Noto Sans&amp;quot;, sans-serif, &amp;quot;Helvetica Neue&amp;quot;, Arial, &amp;quot;Apple Color Emoji&amp;quot;, &amp;quot;Segoe UI Emoji&amp;quot;, &amp;quot;Segoe UI Symbol&amp;quot;, &amp;quot;Noto Color Emoji&amp;quot;; font-style: normal; font-variant-ligatures: normal; font-variant-caps: normal; font-weight: 400; letter-spacing: normal; orphans: 2; text-align: left; text-indent: 0px; text-transform: none; widows: 2; word-spacing: 0px; -webkit-text-stroke-width: 0px; text-decoration-thickness: initial; text-decoration-style: initial; text-decoration-color: initial; float: none; display: inline !important;&quot;&gt;Error Message&lt;/span&gt;&lt;br&gt;&lt;/font&gt;" style="rounded=1;whiteSpace=wrap;html=1;" vertex="1" parent="1">
          <mxGeometry x="700" y="1480" width="120" height="70" as="geometry" />
        </mxCell>
        <mxCell id="Qsda-ckWglxTYHk4Aqey-106" style="edgeStyle=orthogonalEdgeStyle;rounded=0;orthogonalLoop=1;jettySize=auto;html=1;entryX=0.476;entryY=0;entryDx=0;entryDy=0;entryPerimeter=0;exitX=1;exitY=0.5;exitDx=0;exitDy=0;" edge="1" parent="1" source="Qsda-ckWglxTYHk4Aqey-108">
          <mxGeometry relative="1" as="geometry">
            <mxPoint x="434.98" y="1120" as="targetPoint" />
          </mxGeometry>
        </mxCell>
        <mxCell id="Qsda-ckWglxTYHk4Aqey-107" style="edgeStyle=orthogonalEdgeStyle;rounded=0;orthogonalLoop=1;jettySize=auto;html=1;entryX=0.5;entryY=0;entryDx=0;entryDy=0;exitX=0;exitY=0.5;exitDx=0;exitDy=0;" edge="1" parent="1" source="Qsda-ckWglxTYHk4Aqey-108" target="Qsda-ckWglxTYHk4Aqey-114">
          <mxGeometry relative="1" as="geometry">
            <mxPoint x="227.5" y="1120" as="targetPoint" />
          </mxGeometry>
        </mxCell>
        <mxCell id="Qsda-ckWglxTYHk4Aqey-108" value="Google/Email" style="rhombus;whiteSpace=wrap;html=1;" vertex="1" parent="1">
          <mxGeometry x="280" y="1020" width="105" height="80" as="geometry" />
        </mxCell>
        <mxCell id="Qsda-ckWglxTYHk4Aqey-109" style="edgeStyle=orthogonalEdgeStyle;rounded=0;orthogonalLoop=1;jettySize=auto;html=1;entryX=0.5;entryY=0;entryDx=0;entryDy=0;" edge="1" parent="1" source="Qsda-ckWglxTYHk4Aqey-110" target="Qsda-ckWglxTYHk4Aqey-108">
          <mxGeometry relative="1" as="geometry" />
        </mxCell>
        <mxCell id="Qsda-ckWglxTYHk4Aqey-134" style="edgeStyle=orthogonalEdgeStyle;rounded=0;orthogonalLoop=1;jettySize=auto;html=1;entryX=0;entryY=0.5;entryDx=0;entryDy=0;startArrow=classic;startFill=1;endArrow=none;endFill=0;exitX=0;exitY=0.5;exitDx=0;exitDy=0;" edge="1" parent="1" source="Qsda-ckWglxTYHk4Aqey-110">
          <mxGeometry relative="1" as="geometry">
            <mxPoint x="340" y="950" as="sourcePoint" />
            <mxPoint x="345" y="100.03000000000023" as="targetPoint" />
            <Array as="points">
              <mxPoint x="90" y="945" />
              <mxPoint x="90" y="100" />
            </Array>
          </mxGeometry>
        </mxCell>
        <mxCell id="Qsda-ckWglxTYHk4Aqey-110" value="&lt;font style=&quot;font-size: 14px;&quot;&gt;&lt;span style=&quot;color: rgb(209, 213, 219); font-family: Söhne, ui-sans-serif, system-ui, -apple-system, &amp;quot;Segoe UI&amp;quot;, Roboto, Ubuntu, Cantarell, &amp;quot;Noto Sans&amp;quot;, sans-serif, &amp;quot;Helvetica Neue&amp;quot;, Arial, &amp;quot;Apple Color Emoji&amp;quot;, &amp;quot;Segoe UI Emoji&amp;quot;, &amp;quot;Segoe UI Symbol&amp;quot;, &amp;quot;Noto Color Emoji&amp;quot;; font-style: normal; font-variant-ligatures: normal; font-variant-caps: normal; font-weight: 400; letter-spacing: normal; orphans: 2; text-align: left; text-indent: 0px; text-transform: none; widows: 2; word-spacing: 0px; -webkit-text-stroke-width: 0px; text-decoration-thickness: initial; text-decoration-style: initial; text-decoration-color: initial; float: none; display: inline !important;&quot;&gt;Choose Login method&lt;/span&gt;&lt;br&gt;&lt;/font&gt;" style="rounded=1;whiteSpace=wrap;html=1;" vertex="1" parent="1">
          <mxGeometry x="355" y="910" width="120" height="70" as="geometry" />
        </mxCell>
        <mxCell id="Qsda-ckWglxTYHk4Aqey-111" style="edgeStyle=orthogonalEdgeStyle;rounded=0;orthogonalLoop=1;jettySize=auto;html=1;exitX=0;exitY=0.5;exitDx=0;exitDy=0;entryX=1;entryY=0.5;entryDx=0;entryDy=0;" edge="1" parent="1" source="Qsda-ckWglxTYHk4Aqey-105" target="Qsda-ckWglxTYHk4Aqey-110">
          <mxGeometry relative="1" as="geometry">
            <Array as="points">
              <mxPoint x="510" y="1515" />
              <mxPoint x="510" y="945" />
            </Array>
          </mxGeometry>
        </mxCell>
        <mxCell id="Qsda-ckWglxTYHk4Aqey-112" value="Email" style="text;html=1;strokeColor=none;fillColor=none;align=center;verticalAlign=middle;whiteSpace=wrap;rounded=0;fontSize=10;" vertex="1" parent="1">
          <mxGeometry x="215" y="1040" width="60" height="30" as="geometry" />
        </mxCell>
        <mxCell id="Qsda-ckWglxTYHk4Aqey-113" value="Google" style="text;html=1;strokeColor=none;fillColor=none;align=center;verticalAlign=middle;whiteSpace=wrap;rounded=0;fontSize=10;" vertex="1" parent="1">
          <mxGeometry x="385" y="1040" width="60" height="30" as="geometry" />
        </mxCell>
        <mxCell id="Qsda-ckWglxTYHk4Aqey-114" value="&lt;font style=&quot;font-size: 14px;&quot;&gt;&lt;span style=&quot;color: rgb(209, 213, 219); font-family: Söhne, ui-sans-serif, system-ui, -apple-system, &amp;quot;Segoe UI&amp;quot;, Roboto, Ubuntu, Cantarell, &amp;quot;Noto Sans&amp;quot;, sans-serif, &amp;quot;Helvetica Neue&amp;quot;, Arial, &amp;quot;Apple Color Emoji&amp;quot;, &amp;quot;Segoe UI Emoji&amp;quot;, &amp;quot;Segoe UI Symbol&amp;quot;, &amp;quot;Noto Color Emoji&amp;quot;; font-style: normal; font-variant-ligatures: normal; font-variant-caps: normal; font-weight: 400; letter-spacing: normal; orphans: 2; text-align: left; text-indent: 0px; text-transform: none; widows: 2; word-spacing: 0px; -webkit-text-stroke-width: 0px; text-decoration-thickness: initial; text-decoration-style: initial; text-decoration-color: initial; float: none; display: inline !important;&quot;&gt;Selects Email&lt;/span&gt;&lt;br&gt;&lt;/font&gt;" style="rounded=1;whiteSpace=wrap;html=1;" vertex="1" parent="1">
          <mxGeometry x="160" y="1120" width="120" height="40" as="geometry" />
        </mxCell>
        <mxCell id="Qsda-ckWglxTYHk4Aqey-115" value="&lt;font style=&quot;font-size: 14px;&quot;&gt;&lt;span style=&quot;color: rgb(209, 213, 219); font-family: Söhne, ui-sans-serif, system-ui, -apple-system, &amp;quot;Segoe UI&amp;quot;, Roboto, Ubuntu, Cantarell, &amp;quot;Noto Sans&amp;quot;, sans-serif, &amp;quot;Helvetica Neue&amp;quot;, Arial, &amp;quot;Apple Color Emoji&amp;quot;, &amp;quot;Segoe UI Emoji&amp;quot;, &amp;quot;Segoe UI Symbol&amp;quot;, &amp;quot;Noto Color Emoji&amp;quot;; font-style: normal; font-variant-ligatures: normal; font-variant-caps: normal; font-weight: 400; letter-spacing: normal; orphans: 2; text-align: left; text-indent: 0px; text-transform: none; widows: 2; word-spacing: 0px; -webkit-text-stroke-width: 0px; text-decoration-thickness: initial; text-decoration-style: initial; text-decoration-color: initial; float: none; display: inline !important;&quot;&gt;Selects Google&lt;/span&gt;&lt;br&gt;&lt;/font&gt;" style="rounded=1;whiteSpace=wrap;html=1;" vertex="1" parent="1">
          <mxGeometry x="370" y="1120" width="120" height="40" as="geometry" />
        </mxCell>
        <mxCell id="Qsda-ckWglxTYHk4Aqey-136" style="edgeStyle=orthogonalEdgeStyle;rounded=0;orthogonalLoop=1;jettySize=auto;html=1;exitX=0;exitY=0.5;exitDx=0;exitDy=0;entryX=0.5;entryY=0;entryDx=0;entryDy=0;" edge="1" parent="1" source="Qsda-ckWglxTYHk4Aqey-116" target="Qsda-ckWglxTYHk4Aqey-105">
          <mxGeometry relative="1" as="geometry" />
        </mxCell>
        <mxCell id="Qsda-ckWglxTYHk4Aqey-116" value="User exists" style="rhombus;whiteSpace=wrap;html=1;" vertex="1" parent="1">
          <mxGeometry x="782.5" y="1150" width="105" height="80" as="geometry" />
        </mxCell>
        <mxCell id="Qsda-ckWglxTYHk4Aqey-117" value="&lt;font style=&quot;font-size: 14px;&quot;&gt;&lt;span style=&quot;color: rgb(209, 213, 219); font-family: Söhne, ui-sans-serif, system-ui, -apple-system, &amp;quot;Segoe UI&amp;quot;, Roboto, Ubuntu, Cantarell, &amp;quot;Noto Sans&amp;quot;, sans-serif, &amp;quot;Helvetica Neue&amp;quot;, Arial, &amp;quot;Apple Color Emoji&amp;quot;, &amp;quot;Segoe UI Emoji&amp;quot;, &amp;quot;Segoe UI Symbol&amp;quot;, &amp;quot;Noto Color Emoji&amp;quot;; font-style: normal; font-variant-ligatures: normal; font-variant-caps: normal; font-weight: 400; letter-spacing: normal; orphans: 2; text-align: left; text-indent: 0px; text-transform: none; widows: 2; word-spacing: 0px; -webkit-text-stroke-width: 0px; text-decoration-thickness: initial; text-decoration-style: initial; text-decoration-color: initial; float: none; display: inline !important;&quot;&gt;Retrieve Authentication Token &amp;amp; User Details&lt;/span&gt;&lt;br&gt;&lt;/font&gt;" style="rounded=1;whiteSpace=wrap;html=1;" vertex="1" parent="1">
          <mxGeometry x="775" y="1045" width="120" height="70" as="geometry" />
        </mxCell>
        <mxCell id="Qsda-ckWglxTYHk4Aqey-118" style="edgeStyle=orthogonalEdgeStyle;rounded=0;orthogonalLoop=1;jettySize=auto;html=1;exitX=0.5;exitY=1;exitDx=0;exitDy=0;entryX=0.5;entryY=0;entryDx=0;entryDy=0;" edge="1" parent="1" source="Qsda-ckWglxTYHk4Aqey-117" target="Qsda-ckWglxTYHk4Aqey-116">
          <mxGeometry relative="1" as="geometry" />
        </mxCell>
        <mxCell id="Qsda-ckWglxTYHk4Aqey-119" style="edgeStyle=orthogonalEdgeStyle;rounded=0;orthogonalLoop=1;jettySize=auto;html=1;exitX=0.5;exitY=1;exitDx=0;exitDy=0;" edge="1" parent="1" source="Qsda-ckWglxTYHk4Aqey-120" target="Qsda-ckWglxTYHk4Aqey-122">
          <mxGeometry relative="1" as="geometry" />
        </mxCell>
        <mxCell id="Qsda-ckWglxTYHk4Aqey-120" value="&lt;font style=&quot;font-size: 14px;&quot;&gt;&lt;span style=&quot;color: rgb(209, 213, 219); font-family: Söhne, ui-sans-serif, system-ui, -apple-system, &amp;quot;Segoe UI&amp;quot;, Roboto, Ubuntu, Cantarell, &amp;quot;Noto Sans&amp;quot;, sans-serif, &amp;quot;Helvetica Neue&amp;quot;, Arial, &amp;quot;Apple Color Emoji&amp;quot;, &amp;quot;Segoe UI Emoji&amp;quot;, &amp;quot;Segoe UI Symbol&amp;quot;, &amp;quot;Noto Color Emoji&amp;quot;; font-style: normal; font-variant-ligatures: normal; font-variant-caps: normal; font-weight: 400; letter-spacing: normal; orphans: 2; text-align: left; text-indent: 0px; text-transform: none; widows: 2; word-spacing: 0px; -webkit-text-stroke-width: 0px; text-decoration-thickness: initial; text-decoration-style: initial; text-decoration-color: initial; float: none; display: inline !important;&quot;&gt;Validate user input&lt;/span&gt;&lt;br&gt;&lt;/font&gt;" style="rounded=1;whiteSpace=wrap;html=1;" vertex="1" parent="1">
          <mxGeometry x="965" y="1045" width="120" height="70" as="geometry" />
        </mxCell>
        <mxCell id="Qsda-ckWglxTYHk4Aqey-121" style="edgeStyle=orthogonalEdgeStyle;rounded=0;orthogonalLoop=1;jettySize=auto;html=1;exitX=0;exitY=0.5;exitDx=0;exitDy=0;entryX=1;entryY=0.5;entryDx=0;entryDy=0;" edge="1" parent="1" source="Qsda-ckWglxTYHk4Aqey-122" target="Qsda-ckWglxTYHk4Aqey-116">
          <mxGeometry relative="1" as="geometry" />
        </mxCell>
        <mxCell id="Qsda-ckWglxTYHk4Aqey-122" value="input valid" style="rhombus;whiteSpace=wrap;html=1;" vertex="1" parent="1">
          <mxGeometry x="972.5" y="1150" width="105" height="80" as="geometry" />
        </mxCell>
        <mxCell id="Qsda-ckWglxTYHk4Aqey-123" value="No" style="text;html=1;strokeColor=none;fillColor=none;align=center;verticalAlign=middle;whiteSpace=wrap;rounded=0;fontSize=10;" vertex="1" parent="1">
          <mxGeometry x="722" y="1170" width="60" height="30" as="geometry" />
        </mxCell>
        <mxCell id="Qsda-ckWglxTYHk4Aqey-124" style="edgeStyle=orthogonalEdgeStyle;rounded=0;orthogonalLoop=1;jettySize=auto;html=1;exitX=1;exitY=0.5;exitDx=0;exitDy=0;entryX=1;entryY=0.5;entryDx=0;entryDy=0;" edge="1" parent="1" source="Qsda-ckWglxTYHk4Aqey-104" target="Qsda-ckWglxTYHk4Aqey-120">
          <mxGeometry relative="1" as="geometry" />
        </mxCell>
        <mxCell id="Qsda-ckWglxTYHk4Aqey-125" style="edgeStyle=orthogonalEdgeStyle;rounded=0;orthogonalLoop=1;jettySize=auto;html=1;entryX=1;entryY=0.5;entryDx=0;entryDy=0;" edge="1" parent="1" source="Qsda-ckWglxTYHk4Aqey-116">
          <mxGeometry relative="1" as="geometry">
            <Array as="points">
              <mxPoint x="835" y="1615" />
            </Array>
            <mxPoint x="465" y="1615" as="targetPoint" />
          </mxGeometry>
        </mxCell>
        <mxCell id="Qsda-ckWglxTYHk4Aqey-131" style="edgeStyle=orthogonalEdgeStyle;rounded=0;orthogonalLoop=1;jettySize=auto;html=1;entryX=0.5;entryY=0;entryDx=0;entryDy=0;" edge="1" parent="1" source="Qsda-ckWglxTYHk4Aqey-128" target="Qsda-ckWglxTYHk4Aqey-28">
          <mxGeometry relative="1" as="geometry" />
        </mxCell>
        <mxCell id="Qsda-ckWglxTYHk4Aqey-128" value="Login/Register" style="rhombus;whiteSpace=wrap;html=1;" vertex="1" parent="1">
          <mxGeometry x="352.5" y="-30" width="105" height="80" as="geometry" />
        </mxCell>
        <mxCell id="Qsda-ckWglxTYHk4Aqey-130" style="edgeStyle=orthogonalEdgeStyle;rounded=0;orthogonalLoop=1;jettySize=auto;html=1;entryX=0.5;entryY=0;entryDx=0;entryDy=0;" edge="1" parent="1" source="Qsda-ckWglxTYHk4Aqey-129" target="Qsda-ckWglxTYHk4Aqey-128">
          <mxGeometry relative="1" as="geometry" />
        </mxCell>
        <mxCell id="Qsda-ckWglxTYHk4Aqey-129" value="&lt;font style=&quot;font-size: 14px;&quot;&gt;&lt;span style=&quot;color: rgb(209, 213, 219); font-family: Söhne, ui-sans-serif, system-ui, -apple-system, &amp;quot;Segoe UI&amp;quot;, Roboto, Ubuntu, Cantarell, &amp;quot;Noto Sans&amp;quot;, sans-serif, &amp;quot;Helvetica Neue&amp;quot;, Arial, &amp;quot;Apple Color Emoji&amp;quot;, &amp;quot;Segoe UI Emoji&amp;quot;, &amp;quot;Segoe UI Symbol&amp;quot;, &amp;quot;Noto Color Emoji&amp;quot;; font-style: normal; font-variant-ligatures: normal; font-variant-caps: normal; font-weight: 400; letter-spacing: normal; orphans: 2; text-align: left; text-indent: 0px; text-transform: none; widows: 2; word-spacing: 0px; -webkit-text-stroke-width: 0px; text-decoration-thickness: initial; text-decoration-style: initial; text-decoration-color: initial; float: none; display: inline !important;&quot;&gt;Choose Register /Login&amp;nbsp;&lt;/span&gt;&lt;br&gt;&lt;/font&gt;" style="rounded=1;whiteSpace=wrap;html=1;" vertex="1" parent="1">
          <mxGeometry x="321.25" y="-110" width="167.5" height="40" as="geometry" />
        </mxCell>
        <mxCell id="Qsda-ckWglxTYHk4Aqey-132" value="Register" style="text;html=1;strokeColor=none;fillColor=none;align=center;verticalAlign=middle;whiteSpace=wrap;rounded=0;fontSize=10;" vertex="1" parent="1">
          <mxGeometry x="405" y="50" width="60" height="30" as="geometry" />
        </mxCell>
        <mxCell id="Qsda-ckWglxTYHk4Aqey-135" value="View User Dashboard" style="rounded=1;whiteSpace=wrap;html=1;" vertex="1" parent="1">
          <mxGeometry x="270" y="1580" width="195" height="60" as="geometry" />
        </mxCell>
        <mxCell id="Qsda-ckWglxTYHk4Aqey-173" value="Customer" style="swimlane;whiteSpace=wrap;html=1;" vertex="1" parent="1">
          <mxGeometry x="50" y="-280" width="640" height="2040" as="geometry" />
        </mxCell>
        <mxCell id="Qsda-ckWglxTYHk4Aqey-175" value="System" style="swimlane;whiteSpace=wrap;html=1;" vertex="1" parent="1">
          <mxGeometry x="690" y="-280" width="780" height="2040" as="geometry" />
        </mxCell>
      </root>
    </mxGraphModel>
  </diagram>
</mxfile>
